<svg xmlns="http://www.w3.org/2000/svg" viewBox="0 0 1200 630" width="1200" height="630">
  <rect width="1200" height="630" fill="#0f1428"/>

  <!-- Logo mark -->
  <g transform="translate(96 96)">
    <rect width="120" height="120" rx="20" fill="#5b8cff"/>
    <path d="M22 88 L42 67 L56 76 L72 41 L86 56 L104 23"
          stroke="#ffffff" stroke-width="8" fill="none"
          stroke-linecap="round" stroke-linejoin="round"/>
    <circle cx="104" cy="23" r="7" fill="#ffffff"/>
  </g>

  <!-- Wordmark -->
  <text x="96" y="338" font-family="-apple-system, 'SF Pro Display', 'Inter', system-ui, sans-serif"
        font-size="120" font-weight="700" fill="#ffffff" letter-spacing="-3">
    SwiftChart
  </text>

  <!-- Tagline -->
  <text x="96" y="398" font-family="-apple-system, 'SF Pro Text', 'Inter', system-ui, sans-serif"
        font-size="34" font-weight="500" fill="#a8b3d4">
    Lightning-fast Canvas charts. Zero deps. 13 chart types.
  </text>

  <!-- Stats row -->
  <g font-family="-apple-system, 'SF Mono', 'JetBrains Mono', monospace" font-weight="600" fill="#ffffff">
    <g transform="translate(96 488)">
      <text font-size="44">12 KB</text>
      <text y="32" font-size="20" fill="#a8b3d4">gzipped</text>
    </g>
    <g transform="translate(286 488)">
      <text font-size="44">0 deps</text>
      <text y="32" font-size="20" fill="#a8b3d4">pure Canvas 2D</text>
    </g>
    <g transform="translate(496 488)">
      <text font-size="44">13</text>
      <text y="32" font-size="20" fill="#a8b3d4">chart types</text>
    </g>
    <g transform="translate(636 488)">
      <text font-size="44">React</text>
      <text y="32" font-size="20" fill="#a8b3d4">first-class bindings</text>
    </g>
  </g>

  <!-- Decorative chart on right -->
  <g transform="translate(740 80)" stroke="#5b8cff" stroke-width="3" fill="none" stroke-linecap="round" stroke-linejoin="round">
    <path d="M0 280 L40 240 L80 250 L120 200 L160 220 L200 160 L240 180 L280 130 L320 150 L360 80"/>
    <g fill="#5b8cff" stroke="none">
      <circle cx="0" cy="280" r="4"/>
      <circle cx="40" cy="240" r="4"/>
      <circle cx="80" cy="250" r="4"/>
      <circle cx="120" cy="200" r="4"/>
      <circle cx="160" cy="220" r="4"/>
      <circle cx="200" cy="160" r="4"/>
      <circle cx="240" cy="180" r="4"/>
      <circle cx="280" cy="130" r="4"/>
      <circle cx="320" cy="150" r="4"/>
      <circle cx="360" cy="80" r="6" fill="#ffffff"/>
    </g>
  </g>

  <!-- domain pill -->
  <g transform="translate(96 562)">
    <rect width="280" height="36" rx="6" fill="rgba(91,140,255,0.14)" stroke="rgba(91,140,255,0.34)"/>
    <text x="20" y="24" font-family="-apple-system, 'SF Mono', 'JetBrains Mono', monospace"
          font-size="18" fill="#b8c8ff" font-weight="600">
      swiftchart.arshadshah.com
    </text>
  </g>
</svg>
